<?xml version="1.0" standalone="no"?>
<!DOCTYPE svg PUBLIC "-//W3C//DTD SVG 20010904//EN"
 "http://www.w3.org/TR/2001/REC-SVG-20010904/DTD/svg10.dtd">
<svg version="1.0" xmlns="http://www.w3.org/2000/svg"
 width="600.000000pt" height="600.000000pt" viewBox="0 0 600.000000 600.000000"
 preserveAspectRatio="xMidYMid meet">

<g transform="translate(0.000000,600.000000) scale(0.100000,-0.100000)"
fill="#000000" stroke="none">
<path d="M0 3000 l0 -3000 3000 0 3000 0 0 3000 0 3000 -3000 0 -3000 0 0
-3000z m4123 1936 c169 -60 297 -197 342 -367 12 -43 15 -154 15 -564 0 -569
3 -544 -69 -566 -32 -9 -44 -8 -73 5 -19 9 -40 27 -46 39 -8 15 -13 175 -14
522 l-3 500 -33 67 c-37 76 -83 120 -162 156 -68 32 -160 35 -238 8 -70 -24
-152 -99 -183 -168 l-24 -53 -6 -1035 c-5 -1011 -6 -1037 -27 -1122 -42 -174
-126 -306 -242 -380 -164 -105 -469 -116 -656 -23 -128 63 -234 181 -234 259
0 53 46 96 102 96 36 0 46 -7 121 -83 102 -102 138 -118 294 -124 95 -5 122
-2 183 16 114 35 182 114 227 269 16 51 18 159 23 1107 5 1046 5 1050 27 1107
64 168 177 278 343 335 94 32 239 32 333 -1z m-2033 -411 c57 -29 60 -42 60
-243 0 -199 -6 -228 -55 -250 -44 -20 -82 -14 -117 17 l-33 29 -3 174 c-4 205
4 244 58 270 43 22 53 22 90 3z m1898 4 c55 -19 84 -96 63 -162 -16 -46 -41
-68 -90 -74 -36 -5 -44 -2 -76 30 -31 31 -35 41 -35 87 0 62 11 85 53 110 37
23 43 24 85 9z m34 -398 l33 -29 3 -714 c4 -820 2 -867 -36 -908 -25 -27 -47
-34 -95 -31 -10 1 -32 14 -48 30 l-29 29 0 797 0 797 29 29 c41 41 98 41 143
0z m-1923 -266 c16 -8 33 -27 39 -42 8 -19 13 -239 15 -708 3 -643 5 -685 24
-770 64 -280 202 -472 415 -579 147 -73 222 -89 418 -89 191 0 266 15 407 83
139 68 288 229 339 368 39 107 52 131 84 147 44 23 92 13 124 -26 34 -40 33
-72 -4 -167 -140 -362 -434 -574 -848 -613 -502 -47 -919 203 -1081 647 -79
215 -91 366 -91 1102 0 604 0 610 51 646 29 20 71 21 108 1z m2352 -604 l29
-29 0 -384 c0 -462 -16 -604 -92 -831 -126 -380 -382 -680 -711 -836 -114 -53
-209 -83 -241 -75 -38 9 -76 59 -76 100 0 55 24 80 103 110 446 167 707 507
794 1034 11 70 16 199 20 490 l5 395 26 28 c37 39 102 39 143 -2z"/>
</g>
</svg>
